<svg width="211" height="202" viewBox="0 0 211 202" fill="none" xmlns="http://www.w3.org/2000/svg">
<g clip-path="url(#clip0_301_36)">
<g clip-path="url(#clip1_301_36)">
<path d="M35.0411 58.7812H175.959L175.404 177.507L169.301 188.603L159.315 191.377H51.1301L42.2534 189.158L35.0411 177.507V58.7812Z" fill="white"/>
<path d="M35.0411 25.4929L38.3698 19.3902L45.5822 11.623H124.918L175.959 60.9998V129.794H35.0411V25.4929Z" fill="white"/>
<path d="M125.75 10.375V50.875C125.75 53.5603 126.817 56.1356 128.716 58.0345C130.614 59.9333 133.19 61 135.875 61H176.375" stroke="#696F75" stroke-width="2" stroke-linecap="round" stroke-linejoin="round"/>
<path d="M156.125 192.625H54.875C49.5044 192.625 44.3537 190.492 40.5561 186.694C36.7585 182.896 34.625 177.746 34.625 172.375V30.625C34.625 25.2544 36.7585 20.1037 40.5561 16.3061C44.3537 12.5085 49.5044 10.375 54.875 10.375H125.75L176.375 61V172.375C176.375 177.746 174.242 182.896 170.444 186.694C166.646 190.492 161.496 192.625 156.125 192.625Z" stroke="#969696" stroke-width="2" stroke-linecap="round" stroke-linejoin="round"/>
<g clip-path="url(#clip2_301_36)">
<path d="M68.9817 48.9405C68.9817 51.3844 69.9525 53.7283 71.6807 55.4564C73.4088 57.1845 75.7526 58.1554 78.1966 58.1554C80.6405 58.1554 82.9844 57.1845 84.7125 55.4564C86.4406 53.7283 87.4115 51.3844 87.4115 48.9405C87.4115 46.4965 86.4406 44.1527 84.7125 42.4246C82.9844 40.6964 80.6405 39.7256 78.1966 39.7256C75.7526 39.7256 73.4088 40.6964 71.6807 42.4246C69.9525 44.1527 68.9817 46.4965 68.9817 48.9405Z" stroke="#1C81D9" stroke-width="2" stroke-linecap="round" stroke-linejoin="round"/>
<path d="M59.7668 82.7292V79.6576C59.7668 76.399 61.0613 73.2739 63.3654 70.9697C65.6696 68.6656 68.7947 67.3711 72.0533 67.3711H84.3398C87.5984 67.3711 90.7235 68.6656 93.0277 70.9697C95.3319 73.2739 96.6263 76.399 96.6263 79.6576V82.7292" stroke="#1C81D9" stroke-width="2" stroke-linecap="round" stroke-linejoin="round"/>
<path d="M50.5519 33.5827C50.5519 31.9534 51.1992 30.3909 52.3513 29.2388C53.5033 28.0867 55.0659 27.4395 56.6952 27.4395H99.698C101.327 27.4395 102.89 28.0867 104.042 29.2388C105.194 30.3909 105.841 31.9534 105.841 33.5827V76.5855C105.841 78.2148 105.194 79.7774 104.042 80.9295C102.89 82.0815 101.327 82.7288 99.698 82.7288H56.6952C55.0659 82.7288 53.5033 82.0815 52.3513 80.9295C51.1992 79.7774 50.5519 78.2148 50.5519 76.5855V33.5827Z" stroke="#1C81D9" stroke-width="2" stroke-linecap="round" stroke-linejoin="round"/>
</g>
<rect x="49.5281" y="94.6748" width="106.483" height="8.19101" fill="#878787"/>
<rect x="49.5281" y="111.056" width="106.483" height="8.19101" fill="#D3D3D3"/>
<rect x="115.056" y="127.438" width="40.9551" height="8.19101" fill="#D3D3D3"/>
<rect x="115.056" y="141.09" width="40.9551" height="8.19101" fill="#D3D3D3"/>
<rect x="115.056" y="157.472" width="40.9551" height="8.19101" fill="#D3D3D3"/>
<rect x="49.5281" y="127.438" width="60.0674" height="8.19101" fill="#D3D3D3"/>
<rect x="49.5281" y="141.09" width="60.0674" height="8.19101" fill="#929292"/>
<rect x="49.5281" y="157.472" width="60.0674" height="8.19101" fill="#D3D3D3"/>
</g>
</g>
<defs>
<clipPath id="clip0_301_36">
<rect width="211" height="202" fill="white"/>
</clipPath>
<clipPath id="clip1_301_36">
<rect width="243" height="243" fill="white" transform="translate(-16 -20)"/>
</clipPath>
<clipPath id="clip2_301_36">
<rect width="73.7191" height="73.7191" fill="white" transform="translate(41.337 18.2246)"/>
</clipPath>
</defs>
</svg>
